<svg xmlns="http://www.w3.org/2000/svg" width="200" height="169.581" viewBox="0 0 200 169.581"><path d="M91.527,129.711a18.255,18.255,0,1,1,18.251,17.871A18.084,18.084,0,0,1,91.527,129.711Zm7.6,0a10.653,10.653,0,1,0,10.647-10.266A10.473,10.473,0,0,0,99.131,129.711Zm-82.889,0a17.871,17.871,0,1,1,17.871,17.871A17.891,17.891,0,0,1,16.242,129.711Zm7.6,0a10.266,10.266,0,1,0,10.266-10.266A10.278,10.278,0,0,0,23.846,129.711ZM29.1,102.156c-17.788,0-26.808-9.019-26.808-26.808V6.329c0-6.485,0-11.608-2.327-14.515-2.525-3.155-8.792-4.689-19.158-4.689a3.807,3.807,0,0,1-3.8-3.8,3.807,3.807,0,0,1,3.8-3.8c13.18,0,20.92,2.326,25.095,7.541C9.892-7.948,9.892-1.372,9.892,6.243v69.1c0,13.64,5.564,19.2,19.2,19.2h88.854c12.737,0,19.2-2.97,19.2-19.2v-26.1a35.838,35.838,0,0,1-29.361-22.955H33.31a3.8,3.8,0,0,1,0-7.6h72.548a35.743,35.743,0,1,1,38.9,30.624V75.347c0,23.761-14.327,26.808-26.808,26.808ZM141.258,41.878h.324c.675-.008,1.352-.039,2.024-.095l.075-.006h.011a28.129,28.129,0,1,0-6.3-.159l.034,0,.066.009.1.013.035,0,.1.012.016,0a28.53,28.53,0,0,0,3.121.215h.4Zm-3.8-12.928V17.543H126.049a3.8,3.8,0,1,1,0-7.6h11.407V-1.467a3.8,3.8,0,0,1,3.8-3.8,3.8,3.8,0,0,1,3.8,3.8V9.939h11.406a3.8,3.8,0,1,1,0,7.6H145.061V28.951a3.8,3.8,0,1,1-7.6,0Z" transform="translate(23 22)"/></svg>